<?xml version="1.0" encoding="UTF-8"?>
<svg version="1.1" xmlns="http://www.w3.org/2000/svg" width="1080" height="1080">
<path d="M0 0 C-1.58399589 3.89395116 -4.24196943 6.51152235 -7.18408203 9.41113281 C-7.97455933 10.20204819 -7.97455933 10.20204819 -8.78100586 11.00894165 C-10.51857476 12.74512072 -12.26311314 14.474114 -14.0078125 16.203125 C-15.21608322 17.40766437 -16.42391222 18.61264697 -17.63131714 19.8180542 C-20.80637077 22.98548106 -23.98738522 26.14685513 -27.16967773 29.30700684 C-30.41752076 32.53437089 -33.65969133 35.76742228 -36.90234375 39 C-43.26268982 45.33891303 -49.62934753 51.67144624 -56 58 C-60.00163733 56.46378855 -63.33920401 54.59138806 -66.9375 52.25 C-90.40728745 37.60216581 -119.08138775 33.27100427 -146.25 38.1875 C-148.51195509 38.74524235 -150.76313232 39.34889298 -153 40 C-154.83304687 40.51046875 -154.83304687 40.51046875 -156.703125 41.03125 C-185.264524 49.72895998 -208.01373245 70.34406109 -222.21875 96.3671875 C-235.51315439 122.71140226 -237.75596298 153.79187255 -228.546875 181.82421875 C-224.14970299 194.20069168 -217.57298125 205.50735629 -209.0625 215.5 C-207 218 -207 218 -207 220 C-206.34 220 -205.68 220 -205 220 C-204.360625 220.804375 -203.72125 221.60875 -203.0625 222.4375 C-188.19747469 240.84593251 -161.84095164 252.73624817 -138.7265625 255.71875 C-105.46384781 258.22914356 -76.14438415 250.2624855 -50.58447266 228.38525391 C-38.27158535 217.62048926 -28.93393345 205.28108021 -21 191 C-49.05 191 -77.1 191 -106 191 C-106 166.25 -106 141.5 -106 116 C-64.16097237 115.95969697 -64.16097237 115.95969697 -46.68554688 115.95117188 C-34.59887266 115.94522841 -22.51220539 115.93822543 -10.42553711 115.92456055 C-1.62455536 115.9146151 7.17642078 115.90814691 15.97740799 115.90591151 C20.64046267 115.90460416 25.30350128 115.90151682 29.96655083 115.89426994 C34.35032366 115.88751191 38.73407371 115.88538259 43.11785126 115.88689232 C44.73160234 115.88661589 46.34535413 115.88460948 47.95910072 115.88079453 C50.1526889 115.87586066 52.3461897 115.87700056 54.53977966 115.87974548 C55.7703733 115.87882369 57.00096693 115.8779019 58.26885128 115.87695217 C61 116 61 116 62 117 C62.10009853 119.75409391 62.1343953 122.48318229 62.12698364 125.23779297 C62.12854363 126.11182203 62.13010362 126.9858511 62.13171089 127.88636589 C62.13572476 130.83832318 62.13252975 133.79022976 62.12939453 136.7421875 C62.1307484 138.84906037 62.13252825 140.955933 62.13470459 143.06280518 C62.13928063 148.80230535 62.13748866 154.54178764 62.1343255 160.28128815 C62.13180278 166.27330068 62.13413919 172.26531163 62.13571167 178.25732422 C62.13753362 188.32194292 62.13512638 198.38655429 62.13037109 208.45117188 C62.12492843 220.1055987 62.12669106 231.76000803 62.1321975 243.41443443 C62.1367279 253.40080096 62.13737954 263.38716221 62.13475883 273.37352943 C62.13319565 279.34665845 62.1330034 285.31977922 62.13629532 291.29290771 C62.13917297 296.90703912 62.1372003 302.52114785 62.13140106 308.13527679 C62.13007289 310.20215568 62.13046853 312.26903646 62.13266373 314.33591461 C62.13537301 317.14470496 62.13199684 319.95342146 62.12698364 322.76220703 C62.12921436 323.59127501 62.13144509 324.42034298 62.13374341 325.27453423 C62.11414983 330.88585017 62.11414983 330.88585017 61 332 C58.69946165 332.09443335 56.39597827 332.11742128 54.09350586 332.11352539 C53.37159561 332.11367142 52.64968536 332.11381744 51.90589905 332.1139679 C49.50885053 332.11326869 47.11187877 332.10547595 44.71484375 332.09765625 C43.05717511 332.0957921 41.39950593 332.09436818 39.74183655 332.09336853 C35.37045786 332.08954312 30.99911219 332.07971265 26.62774658 332.06866455 C22.17045539 332.05845092 17.71315889 332.05387101 13.25585938 332.04882812 C4.50388938 332.0380904 -4.2480474 332.02049342 -13 332 C-13.33 322.76 -13.66 313.52 -14 304 C-16.64 305.65 -19.28 307.3 -22 309 C-67.97573153 337.22727132 -121.59756959 344.52912285 -174 332 C-186.28832681 329.01523151 -197.63088904 324.5058943 -209 319 C-209.65210449 318.68691895 -210.30420898 318.37383789 -210.97607422 318.05126953 C-225.78538899 310.84312843 -239.05216661 301.31090845 -251 290 C-252.34896373 288.8273213 -253.70295411 287.66039366 -255.0625 286.5 C-284.52833044 260.62900087 -303.42697028 224.94243567 -312 187 C-312.17934082 186.20706543 -312.35868164 185.41413086 -312.54345703 184.59716797 C-317.71108208 160.2164464 -317.23549968 131.31209398 -312 107 C-311.83371094 106.19079102 -311.66742188 105.38158203 -311.49609375 104.54785156 C-300.96385983 54.44172389 -269.17550126 11.57243737 -226.66577148 -16.43725586 C-156.51865363 -61.58268993 -63.30996962 -52.22343116 0 0 Z " fill="#EC4799" transform="translate(332,423)"/>
<path d="M0 0 C0.71671875 0.57621094 1.4334375 1.15242188 2.171875 1.74609375 C24.3343803 19.83893546 36.14788245 48.51673716 41 76 C41.19722656 77.08087891 41.19722656 77.08087891 41.3984375 78.18359375 C42.36755827 84.48287874 42 90.53442484 42 97 C15.93 97 -10.14 97 -37 97 C-37.66 92.05 -38.32 87.1 -39 82 C-43.2575658 68.08103489 -52.87215628 58.83970891 -65.30859375 51.7109375 C-78.73083306 45.00544955 -94.30822041 43.81293086 -109.02416992 43.81469727 C-111.03373295 43.81253101 -113.04325708 43.79407886 -115.05273438 43.77539062 C-127.17626789 43.75755316 -139.1833421 44.66587237 -150.8125 48.3125 C-151.5226123 48.5297876 -152.23272461 48.7470752 -152.96435547 48.97094727 C-162.84854059 52.09849729 -172.86805142 56.32536576 -178.4375 65.5625 C-181.24365146 71.9434444 -181.3043001 79.40475211 -178.94140625 85.91796875 C-177.726956 88.35768038 -176.41464785 90.67226127 -175 93 C-174.69835937 93.71027344 -174.39671875 94.42054688 -174.0859375 95.15234375 C-172.71118406 97.49140266 -171.45744822 97.92798932 -169 99 C-167.72107221 99.90533908 -166.45084905 100.82304567 -165.1875 101.75 C-148.5662458 112.83983032 -127.11684681 116.02625776 -107.68276978 118.54022217 C-69.17397695 123.58050777 -27.25581935 131.79001696 3 158 C3.52207031 158.44279297 4.04414062 158.88558594 4.58203125 159.34179688 C25.06372567 176.82558521 38.76158477 200.00510529 42 227 C42.25841598 231.46309414 42.28721481 235.905406 42.25 240.375 C42.24250732 241.56383789 42.23501465 242.75267578 42.22729492 243.97753906 C41.90730452 270.05586304 34.00229981 293.41797223 15 312 C14.34 312.70640625 13.68 313.4128125 13 314.140625 C-11.94305886 340.44775739 -52.51849438 350.695151 -87.67822266 352.10758972 C-90.38608909 352.16276662 -93.09238263 352.19066995 -95.80078125 352.203125 C-96.79845016 352.20882507 -97.79611908 352.21452515 -98.82402039 352.22039795 C-100.92571985 352.22977994 -103.02743357 352.23635458 -105.12915039 352.24023438 C-108.26671697 352.24985955 -111.40360428 352.28091615 -114.54101562 352.3125 C-133.44551648 352.41121753 -151.90459855 350.71650182 -170 345 C-171.155 344.64164063 -172.31 344.28328125 -173.5 343.9140625 C-205.36618075 333.31571221 -234.32881912 309.5728021 -250.53125 280.2265625 C-259.89045149 260.72822605 -267.53099608 234.62489155 -263 213 C-255.28516366 212.97424767 -247.57033875 212.95696815 -239.85546875 212.94506836 C-237.24120673 212.94009767 -234.62694739 212.93331879 -232.01269531 212.92456055 C-215.97587169 212.87225318 -200.01228357 213.07833254 -184 214 C-183.887771 215.10504883 -183.77554199 216.21009766 -183.65991211 217.34863281 C-181.85989241 234.48044627 -176.93896233 249.22021171 -163.1640625 260.50390625 C-148.71839458 270.22577981 -130.96166762 272.42985991 -114 273 C-113.1028125 273.04125 -112.205625 273.0825 -111.28125 273.125 C-90.00617784 273.66360942 -68.6220903 270.47170175 -50 260 C-49.23558594 259.63648438 -48.47117187 259.27296875 -47.68359375 258.8984375 C-45.37234959 257.66505895 -45.00033874 256.40081298 -44 254 C-43.484375 253.01 -42.96875 252.02 -42.4375 251 C-39.50129636 244.87227066 -38.8101277 238.1883505 -40.68359375 231.59375 C-45.73979778 219.34137177 -55.01274605 213.99822598 -66.8125 208.9375 C-72.66911052 206.7159342 -78.49731828 204.97619761 -84.58984375 203.53125 C-85.49748474 203.31593124 -86.40512573 203.10061249 -87.340271 202.87876892 C-96.75815385 200.71769486 -106.25213825 199.30907601 -115.81619263 197.97485352 C-133.1120682 195.54387759 -150.20944585 192.92722253 -167 188 C-167.91378418 187.73219727 -168.82756836 187.46439453 -169.76904297 187.18847656 C-191.7933029 180.58081307 -211.50391396 171.111474 -229 156 C-230.15435547 155.06414062 -230.15435547 155.06414062 -231.33203125 154.109375 C-249.11909395 139.28163096 -259.99065708 116.73108842 -263 94 C-265.23585052 62.78199877 -258.85606419 33.34027722 -238.5 9.0625 C-231.27549531 0.72393618 -223.23082931 -5.99241718 -214 -12 C-213.14277344 -12.56460937 -212.28554688 -13.12921875 -211.40234375 -13.7109375 C-151.39289602 -51.01638883 -53.86066554 -45.43593577 0 0 Z " fill="#FFFFFF" transform="translate(1021,403)"/>
<path d="M0 0 C47.14875 -0.0928125 47.14875 -0.0928125 95.25 -0.1875 C110.09081543 -0.22846802 110.09081543 -0.22846802 125.23144531 -0.27026367 C137.39208984 -0.28381348 137.39208984 -0.28381348 143.10028076 -0.28633118 C147.0536208 -0.28910558 151.00683775 -0.30026513 154.96014404 -0.31672668 C160.02699418 -0.33754049 165.0936693 -0.34343043 170.16055822 -0.33921683 C172.00499503 -0.3400959 173.84943895 -0.34590321 175.6938386 -0.35764539 C191.94778449 -0.45618772 208.49382522 0.77245601 224 6 C225.20527344 6.39832031 226.41054688 6.79664063 227.65234375 7.20703125 C259.92563631 18.32946541 283.95233736 41.35056147 298.875 71.7734375 C313.23042851 102.12862969 314.93682703 138.2648085 304 170 C292.17731691 202.23700546 269.7351405 226.03518171 239.21484375 241.40234375 C232.78577865 244.29773566 226.08226058 246.26543815 219.3125 248.1875 C218.02279297 248.56285889 218.02279297 248.56285889 216.70703125 248.94580078 C200.45823117 253.3634433 183.94340622 253.27907626 167.24609375 253.1953125 C165.25785434 253.19236312 163.26961336 253.19032821 161.28137207 253.18920898 C154.00005733 253.17882535 146.71877607 253.15090345 139.4375 253.125 C114.9659375 253.063125 114.9659375 253.063125 90 253 C90 291.94 90 330.88 90 371 C60.3 371 30.6 371 0 371 C0 248.57 0 126.14 0 0 Z M90 80 C90 110.69 90 141.38 90 173 C110.975625 173.061875 110.975625 173.061875 132.375 173.125 C136.75313965 173.14320801 141.1312793 173.16141602 145.64208984 173.18017578 C149.64546048 173.18687399 149.64546048 173.18687399 153.64883423 173.19088745 C155.40055362 173.19391287 157.15226947 173.20084881 158.90396118 173.21115112 C181.50649072 173.33717292 202.15571696 173.38060794 219.69140625 157.46484375 C227.31705221 149.26548148 230.62752124 136.18649345 230.24609375 125.21484375 C228.71064123 111.39577107 223.39073903 99.42194983 213 90 C196.81003353 78.65851736 176.75005616 79.69658812 157.87109375 79.8046875 C156.12113575 79.80763844 154.37117596 79.80967238 152.62121582 79.81079102 C146.22661646 79.82115662 139.83205522 79.84907814 133.4375 79.875 C119.103125 79.91625 104.76875 79.9575 90 80 Z " fill="#FFFFFF" transform="translate(427,384)"/>
</svg>
